solid ƒ\ƒŠƒbƒh1
facet normal -1. -0. -0.
outer loop
vertex -47. 93.4752273011 34.4336988477
vertex -47. 94.2475899188 27.8257143401
vertex -47. -19.9794851348 27.8257143401
endloop
endfacet
facet normal -1. -0. 0.
outer loop
vertex -47. 43.7757661279 -32.3242629875
vertex -47. 37.134052392 -32.7110987612
vertex -47. 30.4923386561 -32.3242629875
endloop
endfacet
facet normal -1. 0. 0.
outer loop
vertex -47. 43.7757661279 -32.3242629875
vertex -47. 30.4923386561 -32.3242629875
vertex -47. 50.3276620794 -31.1689869564
endloop
endfacet
facet normal -1. -0. 0.
outer loop
vertex -47. 50.3276620794 -31.1689869564
vertex -47. 30.4923386561 -32.3242629875
vertex -47. 23.9404427047 -31.1689869564
endloop
endfacet
facet normal -1. 0. 0.
outer loop
vertex -47. 50.3276620794 -31.1689869564
vertex -47. 23.9404427047 -31.1689869564
vertex -47. 56.7011370932 -29.2608937946
endloop
endfacet
facet normal -1. -0. 0.
outer loop
vertex -47. 56.7011370932 -29.2608937946
vertex -47. 23.9404427047 -31.1689869564
vertex -47. 17.5669676908 -29.2608937946
endloop
endfacet
facet normal -1. -0. 0.
outer loop
vertex -47. 56.7011370932 -29.2608937946
vertex -47. 17.5669676908 -29.2608937946
vertex -47. 62.8100008534 -26.6257871886
endloop
endfacet
facet normal -1. -0. 0.
outer loop
vertex -47. 62.8100008534 -26.6257871886
vertex -47. 17.5669676908 -29.2608937946
vertex -47. 11.4581039306 -26.6257871886
endloop
endfacet
facet normal -1. 0. 0.
outer loop
vertex -47. 62.8100008534 -26.6257871886
vertex -47. 11.4581039306 -26.6257871886
vertex -47. 68.5716414574 -23.299302435
endloop
endfacet
facet normal -1. -0. 0.
outer loop
vertex -47. 68.5716414574 -23.299302435
vertex -47. 11.4581039306 -26.6257871886
vertex -47. 5.6964633266 -23.299302435
endloop
endfacet
facet normal -1. 0. 0.
outer loop
vertex -47. 68.5716414574 -23.299302435
vertex -47. 5.6964633266 -23.299302435
vertex -47. 73.9081426 -19.3264245333
endloop
endfacet
facet normal -1. -0. 0.
outer loop
vertex -47. 73.9081426 -19.3264245333
vertex -47. 5.6964633266 -23.299302435
vertex -47. 0.359962184046 -19.3264245333
endloop
endfacet
facet normal -1. 0. 0.
outer loop
vertex -47. 73.9081426 -19.3264245333
vertex -47. 0.359962184046 -19.3264245333
vertex -47. 78.7473372578 -14.7608798419
endloop
endfacet
facet normal -1. -0. 0.
outer loop
vertex -47. 78.7473372578 -14.7608798419
vertex -47. 0.359962184046 -19.3264245333
vertex -47. -4.4792324738 -14.7608798419
endloop
endfacet
facet normal -1. 0. 0.
outer loop
vertex -47. 78.7473372578 -14.7608798419
vertex -47. -4.4792324738 -14.7608798419
vertex -47. 83.0237836248 -9.6644095205
endloop
endfacet
facet normal -1. -0. 0.
outer loop
vertex -47. 83.0237836248 -9.6644095205
vertex -47. -4.4792324738 -14.7608798419
vertex -47. -8.75567884076 -9.6644095205
endloop
endfacet
facet normal -1. 0. 0.
outer loop
vertex -47. 83.0237836248 -9.6644095205
vertex -47. -8.75567884076 -9.6644095205
vertex -47. 86.6796500999 -4.10593458739
endloop
endfacet
facet normal -1. -0. 0.
outer loop
vertex -47. 86.6796500999 -4.10593458739
vertex -47. -8.75567884076 -9.6644095205
vertex -47. -12.4115453159 -4.10593458739
endloop
endfacet
facet normal -1. 0. 0.
outer loop
vertex -47. 86.6796500999 -4.10593458739
vertex -47. -12.4115453159 -4.10593458739
vertex -47. 89.6654973607 1.83937611947
endloop
endfacet
facet normal -1. -0. 0.
outer loop
vertex -47. 89.6654973607 1.83937611947
vertex -47. -12.4115453159 -4.10593458739
vertex -47. -15.3973925767 1.83937611947
endloop
endfacet
facet normal -1. 0. 0.
outer loop
vertex -47. 89.6654973607 1.83937611947
vertex -47. -15.3973925767 1.83937611947
vertex -47. 91.9409469452 8.09112247186
endloop
endfacet
facet normal -1. -0. 0.
outer loop
vertex -47. 91.9409469452 8.09112247186
vertex -47. -15.3973925767 1.83937611947
vertex -47. -17.6728421612 8.09112247186
endloop
endfacet
facet normal -1. 0. 0.
outer loop
vertex -47. 91.9409469452 8.09112247186
vertex -47. -17.6728421612 8.09112247186
vertex -47. 93.4752273011 14.5647603251
endloop
endfacet
facet normal -1. -0. 0.
outer loop
vertex -47. 93.4752273011 14.5647603251
vertex -47. -17.6728421612 8.09112247186
vertex -47. -19.2071225171 14.5647603251
endloop
endfacet
facet normal -1. 0. 0.
outer loop
vertex -47. 93.4752273011 14.5647603251
vertex -47. -19.2071225171 14.5647603251
vertex -47. 94.2475899188 21.1727448327
endloop
endfacet
facet normal -1. -0. 0.
outer loop
vertex -47. 94.2475899188 21.1727448327
vertex -47. -19.2071225171 14.5647603251
vertex -47. -19.9794851348 21.1727448327
endloop
endfacet
facet normal -1. 0. 0.
outer loop
vertex -47. 94.2475899188 21.1727448327
vertex -47. -19.9794851348 21.1727448327
vertex -47. 94.2475899188 27.8257143401
endloop
endfacet
facet normal -1. -0. 0.
outer loop
vertex -47. 94.2475899188 27.8257143401
vertex -47. -19.9794851348 21.1727448327
vertex -47. -20.0762759556 24.4992295864
endloop
endfacet
facet normal -1. -0. 0.
outer loop
vertex -47. 94.2475899188 27.8257143401
vertex -47. -20.0762759556 24.4992295864
vertex -47. -19.9794851348 27.8257143401
endloop
endfacet
facet normal -1. 0. 0.
outer loop
vertex -47. 86.6796500999 53.1043937602
vertex -47. 89.6654973607 47.1590830534
vertex -47. 91.9409469452 40.907336701
endloop
endfacet
facet normal -1. 0. 0.
outer loop
vertex -47. -19.9794851348 27.8257143401
vertex -47. 56.7011370932 78.2593529674
vertex -47. 62.8100008534 75.6242463615
endloop
endfacet
facet normal -1. 0. 0.
outer loop
vertex -47. -19.9794851348 27.8257143401
vertex -47. -19.2071225171 34.4336988477
vertex -47. 56.7011370932 78.2593529674
endloop
endfacet
facet normal -1. -0. 0.
outer loop
vertex -47. 56.7011370932 78.2593529674
vertex -47. -19.2071225171 34.4336988477
vertex -47. -17.6728421612 40.907336701
endloop
endfacet
facet normal -1. -0. 0.
outer loop
vertex -47. 56.7011370932 78.2593529674
vertex -47. -17.6728421612 40.907336701
vertex -47. -15.3973925767 47.1590830534
endloop
endfacet
facet normal -1. 0. -0.
outer loop
vertex -47. 62.8100008534 75.6242463615
vertex -47. 68.5716414574 72.2977616078
vertex -47. -19.9794851348 27.8257143401
endloop
endfacet
facet normal -1. 0. 0.
outer loop
vertex -47. -19.9794851348 27.8257143401
vertex -47. 68.5716414574 72.2977616078
vertex -47. 73.9081426 68.3248837061
endloop
endfacet
facet normal -1. 0. 0.
outer loop
vertex -47. -19.9794851348 27.8257143401
vertex -47. 73.9081426 68.3248837061
vertex -47. 78.7473372578 63.7593390147
endloop
endfacet
facet normal -1. -0. -0.
outer loop
vertex -47. 91.9409469452 40.907336701
vertex -47. 93.4752273011 34.4336988477
vertex -47. 86.6796500999 53.1043937602
endloop
endfacet
facet normal -1. 0. -0.
outer loop
vertex -47. 86.6796500999 53.1043937602
vertex -47. 93.4752273011 34.4336988477
vertex -47. -19.9794851348 27.8257143401
endloop
endfacet
facet normal -1. -0. 0.
outer loop
vertex -47. 86.6796500999 53.1043937602
vertex -47. -19.9794851348 27.8257143401
vertex -47. 83.0237836248 58.6628686934
endloop
endfacet
facet normal -1. -0. 0.
outer loop
vertex -47. 83.0237836248 58.6628686934
vertex -47. -19.9794851348 27.8257143401
vertex -47. 78.7473372578 63.7593390147
endloop
endfacet
facet normal -1. 0. 0.
outer loop
vertex -47. 0.359962184046 68.3248837061
vertex -47. 5.6964633266 72.2977616078
vertex -47. 11.4581039306 75.6242463615
endloop
endfacet
facet normal -1. 0. -0.
outer loop
vertex -47. 37.134052392 81.7095579341
vertex -47. 43.7757661279 81.3227221603
vertex -47. -4.4792324738 63.7593390147
endloop
endfacet
facet normal -1. 0. -0.
outer loop
vertex -47. 11.4581039306 75.6242463615
vertex -47. 17.5669676908 78.2593529674
vertex -47. 0.359962184046 68.3248837061
endloop
endfacet
facet normal -1. 0. 0.
outer loop
vertex -47. 0.359962184046 68.3248837061
vertex -47. 17.5669676908 78.2593529674
vertex -47. 23.9404427047 80.1674461293
endloop
endfacet
facet normal -1. 0. -0.
outer loop
vertex -47. 0.359962184046 68.3248837061
vertex -47. 23.9404427047 80.1674461293
vertex -47. -4.4792324738 63.7593390147
endloop
endfacet
facet normal -1. 0. 0.
outer loop
vertex -47. -4.4792324738 63.7593390147
vertex -47. 23.9404427047 80.1674461293
vertex -47. 30.4923386561 81.3227221603
endloop
endfacet
facet normal -1. 0. 0.
outer loop
vertex -47. -4.4792324738 63.7593390147
vertex -47. 30.4923386561 81.3227221603
vertex -47. 37.134052392 81.7095579341
endloop
endfacet
facet normal -1. 0. -0.
outer loop
vertex -47. 43.7757661279 81.3227221603
vertex -47. 50.3276620794 80.1674461293
vertex -47. -4.4792324738 63.7593390147
endloop
endfacet
facet normal -1. 0. 0.
outer loop
vertex -47. -4.4792324738 63.7593390147
vertex -47. 50.3276620794 80.1674461293
vertex -47. 56.7011370932 78.2593529674
endloop
endfacet
facet normal -1. 0. -0.
outer loop
vertex -47. -4.4792324738 63.7593390147
vertex -47. 56.7011370932 78.2593529674
vertex -47. -8.75567884076 58.6628686934
endloop
endfacet
facet normal -1. 0. -0.
outer loop
vertex -47. -8.75567884076 58.6628686934
vertex -47. 56.7011370932 78.2593529674
vertex -47. -15.3973925767 47.1590830534
endloop
endfacet
facet normal -1. -0. 0.
outer loop
vertex -47. -8.75567884076 58.6628686934
vertex -47. -15.3973925767 47.1590830534
vertex -47. -12.4115453159 53.1043937602
endloop
endfacet
facet normal 1. -0. 0.
outer loop
vertex 0. 37.134052392 81.7095579341
vertex 0. 30.4923386561 81.3227221603
vertex 0. 43.7757661279 81.3227221603
endloop
endfacet
facet normal 1. 0. 0.
outer loop
vertex 0. 43.7757661279 81.3227221603
vertex 0. 30.4923386561 81.3227221603
vertex 0. 23.9404427047 80.1674461293
endloop
endfacet
facet normal 1. -0. 0.
outer loop
vertex 0. 43.7757661279 81.3227221603
vertex 0. 23.9404427047 80.1674461293
vertex 0. 50.3276620794 80.1674461293
endloop
endfacet
facet normal 1. 0. 0.
outer loop
vertex 0. 50.3276620794 80.1674461293
vertex 0. 23.9404427047 80.1674461293
vertex 0. 17.5669676908 78.2593529674
endloop
endfacet
facet normal 1. 0. 0.
outer loop
vertex 0. 50.3276620794 80.1674461293
vertex 0. 17.5669676908 78.2593529674
vertex 0. 56.7011370932 78.2593529674
endloop
endfacet
facet normal 1. 0. 0.
outer loop
vertex 0. 56.7011370932 78.2593529674
vertex 0. 17.5669676908 78.2593529674
vertex 0. 11.4581039306 75.6242463615
endloop
endfacet
facet normal 1. 0. 0.
outer loop
vertex 0. 56.7011370932 78.2593529674
vertex 0. 11.4581039306 75.6242463615
vertex 0. 62.8100008534 75.6242463615
endloop
endfacet
facet normal 1. 0. 0.
outer loop
vertex 0. 62.8100008534 75.6242463615
vertex 0. 11.4581039306 75.6242463615
vertex 0. 5.6964633266 72.2977616078
endloop
endfacet
facet normal 1. 0. 0.
outer loop
vertex 0. 62.8100008534 75.6242463615
vertex 0. 5.6964633266 72.2977616078
vertex 0. 68.5716414574 72.2977616078
endloop
endfacet
facet normal 1. 0. 0.
outer loop
vertex 0. 68.5716414574 72.2977616078
vertex 0. 5.6964633266 72.2977616078
vertex 0. 0.359962184046 68.3248837061
endloop
endfacet
facet normal 1. -0. 0.
outer loop
vertex 0. 68.5716414574 72.2977616078
vertex 0. 0.359962184046 68.3248837061
vertex 0. 73.9081426 68.3248837061
endloop
endfacet
facet normal 1. 0. 0.
outer loop
vertex 0. 73.9081426 68.3248837061
vertex 0. 0.359962184046 68.3248837061
vertex 0. -4.4792324738 63.7593390147
endloop
endfacet
facet normal 1. -0. 0.
outer loop
vertex 0. 73.9081426 68.3248837061
vertex 0. -4.4792324738 63.7593390147
vertex 0. 78.7473372578 63.7593390147
endloop
endfacet
facet normal 1. 0. 0.
outer loop
vertex 0. 78.7473372578 63.7593390147
vertex 0. -4.4792324738 63.7593390147
vertex 0. -8.75567884076 58.6628686934
endloop
endfacet
facet normal 1. -0. 0.
outer loop
vertex 0. 78.7473372578 63.7593390147
vertex 0. -8.75567884076 58.6628686934
vertex 0. 83.0237836248 58.6628686934
endloop
endfacet
facet normal 1. 0. 0.
outer loop
vertex 0. 83.0237836248 58.6628686934
vertex 0. -8.75567884076 58.6628686934
vertex 0. -12.4115453159 53.1043937602
endloop
endfacet
facet normal 1. 0. 0.
outer loop
vertex 0. 83.0237836248 58.6628686934
vertex 0. -12.4115453159 53.1043937602
vertex 0. 86.6796500999 53.1043937602
endloop
endfacet
facet normal 1. 0. 0.
outer loop
vertex 0. 86.6796500999 53.1043937602
vertex 0. -12.4115453159 53.1043937602
vertex 0. -15.3973925767 47.1590830534
endloop
endfacet
facet normal 1. -0. 0.
outer loop
vertex 0. 86.6796500999 53.1043937602
vertex 0. -15.3973925767 47.1590830534
vertex 0. 89.6654973607 47.1590830534
endloop
endfacet
facet normal 1. 0. 0.
outer loop
vertex 0. 89.6654973607 47.1590830534
vertex 0. -15.3973925767 47.1590830534
vertex 0. -17.6728421612 40.907336701
endloop
endfacet
facet normal 1. 0. 0.
outer loop
vertex 0. 89.6654973607 47.1590830534
vertex 0. -17.6728421612 40.907336701
vertex 0. 91.9409469452 40.907336701
endloop
endfacet
facet normal 1. 0. 0.
outer loop
vertex 0. 91.9409469452 40.907336701
vertex 0. -17.6728421612 40.907336701
vertex 0. -19.2071225171 34.4336988477
endloop
endfacet
facet normal 1. -0. 0.
outer loop
vertex 0. 91.9409469452 40.907336701
vertex 0. -19.2071225171 34.4336988477
vertex 0. 93.4752273011 34.4336988477
endloop
endfacet
facet normal 1. 0. 0.
outer loop
vertex 0. 93.4752273011 34.4336988477
vertex 0. -19.2071225171 34.4336988477
vertex 0. -19.9794851348 27.8257143401
endloop
endfacet
facet normal 1. 0. 0.
outer loop
vertex 0. 93.4752273011 34.4336988477
vertex 0. -19.9794851348 27.8257143401
vertex 0. 94.2475899188 27.8257143401
endloop
endfacet
facet normal 1. 0. -0.
outer loop
vertex 0. 68.5716414574 -23.299302435
vertex 0. 73.9081426 -19.3264245333
vertex 0. -19.9794851348 21.1727448327
endloop
endfacet
facet normal 1. 0. -0.
outer loop
vertex 0. 91.9409469452 8.09112247186
vertex 0. 93.4752273011 14.5647603251
vertex 0. -19.9794851348 21.1727448327
endloop
endfacet
facet normal 1. 0. -0.
outer loop
vertex 0. 89.6654973607 1.83937611947
vertex 0. 91.9409469452 8.09112247186
vertex 0. 86.6796500999 -4.10593458739
endloop
endfacet
facet normal 1. 0. -0.
outer loop
vertex 0. 86.6796500999 -4.10593458739
vertex 0. 91.9409469452 8.09112247186
vertex 0. -19.9794851348 21.1727448327
endloop
endfacet
facet normal 1. 0. 0.
outer loop
vertex 0. 86.6796500999 -4.10593458739
vertex 0. -19.9794851348 21.1727448327
vertex 0. 83.0237836248 -9.6644095205
endloop
endfacet
facet normal 1. 0. 0.
outer loop
vertex 0. 83.0237836248 -9.6644095205
vertex 0. -19.9794851348 21.1727448327
vertex 0. 73.9081426 -19.3264245333
endloop
endfacet
facet normal 1. -0. 0.
outer loop
vertex 0. 83.0237836248 -9.6644095205
vertex 0. 73.9081426 -19.3264245333
vertex 0. 78.7473372578 -14.7608798419
endloop
endfacet
facet normal 1. -0. 0.
outer loop
vertex 0. -19.9794851348 27.8257143401
vertex 0. -20.0762759556 24.4992295864
vertex 0. 94.2475899188 27.8257143401
endloop
endfacet
facet normal 1. 0. 0.
outer loop
vertex 0. 94.2475899188 27.8257143401
vertex 0. -20.0762759556 24.4992295864
vertex 0. -19.9794851348 21.1727448327
endloop
endfacet
facet normal 1. 0. 0.
outer loop
vertex 0. 94.2475899188 27.8257143401
vertex 0. -19.9794851348 21.1727448327
vertex 0. 94.2475899188 21.1727448327
endloop
endfacet
facet normal 1. 0. 0.
outer loop
vertex 0. 94.2475899188 21.1727448327
vertex 0. -19.9794851348 21.1727448327
vertex 0. 93.4752273011 14.5647603251
endloop
endfacet
facet normal 1. 0. 0.
outer loop
vertex 0. 37.134052392 -32.7110987612
vertex 0. -19.2071225171 14.5647603251
vertex 0. -17.6728421612 8.09112247186
endloop
endfacet
facet normal 1. -0. -0.
outer loop
vertex 0. -19.2071225171 14.5647603251
vertex 0. 37.134052392 -32.7110987612
vertex 0. -19.9794851348 21.1727448327
endloop
endfacet
facet normal 1. -0. 0.
outer loop
vertex 0. -19.9794851348 21.1727448327
vertex 0. 37.134052392 -32.7110987612
vertex 0. 43.7757661279 -32.3242629875
endloop
endfacet
facet normal 1. -0. 0.
outer loop
vertex 0. -19.9794851348 21.1727448327
vertex 0. 43.7757661279 -32.3242629875
vertex 0. 50.3276620794 -31.1689869564
endloop
endfacet
facet normal 1. 0. -0.
outer loop
vertex 0. 50.3276620794 -31.1689869564
vertex 0. 56.7011370932 -29.2608937946
vertex 0. -19.9794851348 21.1727448327
endloop
endfacet
facet normal 1. -0. 0.
outer loop
vertex 0. -19.9794851348 21.1727448327
vertex 0. 56.7011370932 -29.2608937946
vertex 0. 62.8100008534 -26.6257871886
endloop
endfacet
facet normal 1. -0. 0.
outer loop
vertex 0. -19.9794851348 21.1727448327
vertex 0. 62.8100008534 -26.6257871886
vertex 0. 68.5716414574 -23.299302435
endloop
endfacet
facet normal 1. 0. 0.
outer loop
vertex 0. -17.6728421612 8.09112247186
vertex 0. -15.3973925767 1.83937611947
vertex 0. 37.134052392 -32.7110987612
endloop
endfacet
facet normal 1. 0. 0.
outer loop
vertex 0. 37.134052392 -32.7110987612
vertex 0. -15.3973925767 1.83937611947
vertex 0. -12.4115453159 -4.10593458739
endloop
endfacet
facet normal 1. 0. 0.
outer loop
vertex 0. 37.134052392 -32.7110987612
vertex 0. -12.4115453159 -4.10593458739
vertex 0. -8.75567884076 -9.6644095205
endloop
endfacet
facet normal 1. 0. 0.
outer loop
vertex 0. -8.75567884076 -9.6644095205
vertex 0. -4.4792324738 -14.7608798419
vertex 0. 0.359962184046 -19.3264245333
endloop
endfacet
facet normal 1. 0. 0.
outer loop
vertex 0. -8.75567884076 -9.6644095205
vertex 0. 0.359962184046 -19.3264245333
vertex 0. 37.134052392 -32.7110987612
endloop
endfacet
facet normal 1. 0. 0.
outer loop
vertex 0. 37.134052392 -32.7110987612
vertex 0. 0.359962184046 -19.3264245333
vertex 0. 5.6964633266 -23.299302435
endloop
endfacet
facet normal 1. 0. 0.
outer loop
vertex 0. 37.134052392 -32.7110987612
vertex 0. 5.6964633266 -23.299302435
vertex 0. 11.4581039306 -26.6257871886
endloop
endfacet
facet normal 1. 0. 0.
outer loop
vertex 0. 11.4581039306 -26.6257871886
vertex 0. 17.5669676908 -29.2608937946
vertex 0. 37.134052392 -32.7110987612
endloop
endfacet
facet normal 1. 0. 0.
outer loop
vertex 0. 37.134052392 -32.7110987612
vertex 0. 17.5669676908 -29.2608937946
vertex 0. 23.9404427047 -31.1689869564
endloop
endfacet
facet normal 1. 0. 0.
outer loop
vertex 0. 37.134052392 -32.7110987612
vertex 0. 23.9404427047 -31.1689869564
vertex 0. 30.4923386561 -32.3242629875
endloop
endfacet
facet normal 8.58790542908e-018 -0.999576950082 2.90847187431e-002
outer loop
vertex -47. -19.9794851348 27.8257143401
vertex -47. -20.0762759556 24.4992295864
vertex 0. -20.0762759556 24.4992295864
endloop
endfacet
facet normal -8.58790542908e-018 -0.999576950082 -2.90847187431e-002
outer loop
vertex 0. -20.0762759556 24.4992295864
vertex -47. -20.0762759556 24.4992295864
vertex 0. -19.9794851348 21.1727448327
endloop
endfacet
facet normal 0. -0.999576950082 2.90847187431e-002
outer loop
vertex 0. -20.0762759556 24.4992295864
vertex 0. -19.9794851348 27.8257143401
vertex -47. -19.9794851348 27.8257143401
endloop
endfacet
facet normal 0. -0.993238357742 0.116092914125
outer loop
vertex -47. -19.9794851348 27.8257143401
vertex 0. -19.9794851348 27.8257143401
vertex 0. -19.2071225171 34.4336988477
endloop
endfacet
facet normal 0. -0.993238357742 0.116092914125
outer loop
vertex -47. -19.9794851348 27.8257143401
vertex 0. -19.2071225171 34.4336988477
vertex -47. -19.2071225171 34.4336988477
endloop
endfacet
facet normal 0. -0.97304487058 0.230615870742
outer loop
vertex -47. -19.2071225171 34.4336988477
vertex 0. -19.2071225171 34.4336988477
vertex 0. -17.6728421612 40.907336701
endloop
endfacet
facet normal 0. -0.97304487058 0.230615870742
outer loop
vertex -47. -19.2071225171 34.4336988477
vertex 0. -17.6728421612 40.907336701
vertex -47. -17.6728421612 40.907336701
endloop
endfacet
facet normal 0. -0.939692620786 0.342020143326
outer loop
vertex -47. -17.6728421612 40.907336701
vertex 0. -17.6728421612 40.907336701
vertex 0. -15.3973925767 47.1590830534
endloop
endfacet
facet normal 0. -0.939692620786 0.342020143326
outer loop
vertex -47. -17.6728421612 40.907336701
vertex 0. -15.3973925767 47.1590830534
vertex -47. -15.3973925767 47.1590830534
endloop
endfacet
facet normal 0. -0.893632640323 0.4487991802
outer loop
vertex -47. -15.3973925767 47.1590830534
vertex 0. -15.3973925767 47.1590830534
vertex 0. -12.4115453159 53.1043937602
endloop
endfacet
facet normal 0. -0.893632640323 0.4487991802
outer loop
vertex -47. -15.3973925767 47.1590830534
vertex 0. -12.4115453159 53.1043937602
vertex -47. -12.4115453159 53.1043937602
endloop
endfacet
facet normal 0. -0.835487811413 0.549508978071
outer loop
vertex -47. -12.4115453159 53.1043937602
vertex 0. -12.4115453159 53.1043937602
vertex 0. -8.75567884076 58.6628686934
endloop
endfacet
facet normal 0. -0.835487811413 0.549508978071
outer loop
vertex -47. -12.4115453159 53.1043937602
vertex 0. -8.75567884076 58.6628686934
vertex -47. -8.75567884076 58.6628686934
endloop
endfacet
facet normal 0. -0.766044443119 0.642787609687
outer loop
vertex -47. -8.75567884076 58.6628686934
vertex 0. -8.75567884076 58.6628686934
vertex 0. -4.4792324738 63.7593390147
endloop
endfacet
facet normal 0. -0.766044443119 0.642787609687
outer loop
vertex -47. -8.75567884076 58.6628686934
vertex 0. -4.4792324738 63.7593390147
vertex -47. -4.4792324738 63.7593390147
endloop
endfacet
facet normal 0. -0.686241637869 0.727373641573
outer loop
vertex -47. -4.4792324738 63.7593390147
vertex 0. -4.4792324738 63.7593390147
vertex 0. 0.359962184046 68.3248837061
endloop
endfacet
facet normal 0. -0.686241637869 0.727373641573
outer loop
vertex -47. -4.4792324738 63.7593390147
vertex 0. 0.359962184046 68.3248837061
vertex -47. 0.359962184046 68.3248837061
endloop
endfacet
facet normal 0. -0.597158591703 0.802123192755
outer loop
vertex -47. 0.359962184046 68.3248837061
vertex 0. 0.359962184046 68.3248837061
vertex 0. 5.6964633266 72.2977616078
endloop
endfacet
facet normal 0. -0.597158591703 0.802123192755
outer loop
vertex -47. 0.359962184046 68.3248837061
vertex 0. 5.6964633266 72.2977616078
vertex -47. 5.6964633266 72.2977616078
endloop
endfacet
facet normal 0. -0.5 0.866025403784
outer loop
vertex -47. 5.6964633266 72.2977616078
vertex 0. 5.6964633266 72.2977616078
vertex 0. 11.4581039306 75.6242463615
endloop
endfacet
facet normal 0. -0.5 0.866025403784
outer loop
vertex -47. 5.6964633266 72.2977616078
vertex 0. 11.4581039306 75.6242463615
vertex -47. 11.4581039306 75.6242463615
endloop
endfacet
facet normal 0. -0.396079766039 0.91821610688
outer loop
vertex -47. 11.4581039306 75.6242463615
vertex 0. 11.4581039306 75.6242463615
vertex 0. 17.5669676908 78.2593529674
endloop
endfacet
facet normal 0. -0.396079766039 0.91821610688
outer loop
vertex -47. 11.4581039306 75.6242463615
vertex 0. 17.5669676908 78.2593529674
vertex -47. 17.5669676908 78.2593529674
endloop
endfacet
facet normal 0. -0.286803232711 0.957989512315
outer loop
vertex -47. 17.5669676908 78.2593529674
vertex 0. 17.5669676908 78.2593529674
vertex 0. 23.9404427047 80.1674461293
endloop
endfacet
facet normal 0. -0.286803232711 0.957989512315
outer loop
vertex -47. 17.5669676908 78.2593529674
vertex 0. 23.9404427047 80.1674461293
vertex -47. 23.9404427047 80.1674461293
endloop
endfacet
facet normal 0. -0.173648177667 0.984807753012
outer loop
vertex -47. 23.9404427047 80.1674461293
vertex 0. 23.9404427047 80.1674461293
vertex 0. 30.4923386561 81.3227221603
endloop
endfacet
facet normal 0. -0.173648177667 0.984807753012
outer loop
vertex -47. 23.9404427047 80.1674461293
vertex 0. 30.4923386561 81.3227221603
vertex -47. 30.4923386561 81.3227221603
endloop
endfacet
facet normal 0. -5.81448289105e-002 0.998308158271
outer loop
vertex -47. 30.4923386561 81.3227221603
vertex 0. 30.4923386561 81.3227221603
vertex 0. 37.134052392 81.7095579341
endloop
endfacet
facet normal 0. -5.81448289105e-002 0.998308158271
outer loop
vertex -47. 30.4923386561 81.3227221603
vertex 0. 37.134052392 81.7095579341
vertex -47. 37.134052392 81.7095579341
endloop
endfacet
facet normal -0. 5.81448289105e-002 0.998308158271
outer loop
vertex -47. 37.134052392 81.7095579341
vertex 0. 37.134052392 81.7095579341
vertex 0. 43.7757661279 81.3227221603
endloop
endfacet
facet normal 0. 5.81448289105e-002 0.998308158271
outer loop
vertex -47. 37.134052392 81.7095579341
vertex 0. 43.7757661279 81.3227221603
vertex -47. 43.7757661279 81.3227221603
endloop
endfacet
facet normal -0. 0.173648177667 0.984807753012
outer loop
vertex -47. 43.7757661279 81.3227221603
vertex 0. 43.7757661279 81.3227221603
vertex 0. 50.3276620794 80.1674461293
endloop
endfacet
facet normal 0. 0.173648177667 0.984807753012
outer loop
vertex -47. 43.7757661279 81.3227221603
vertex 0. 50.3276620794 80.1674461293
vertex -47. 50.3276620794 80.1674461293
endloop
endfacet
facet normal -0. 0.286803232711 0.957989512315
outer loop
vertex -47. 50.3276620794 80.1674461293
vertex 0. 50.3276620794 80.1674461293
vertex 0. 56.7011370932 78.2593529674
endloop
endfacet
facet normal 0. 0.286803232711 0.957989512315
outer loop
vertex -47. 50.3276620794 80.1674461293
vertex 0. 56.7011370932 78.2593529674
vertex -47. 56.7011370932 78.2593529674
endloop
endfacet
facet normal -0. 0.396079766039 0.91821610688
outer loop
vertex -47. 56.7011370932 78.2593529674
vertex 0. 56.7011370932 78.2593529674
vertex 0. 62.8100008534 75.6242463615
endloop
endfacet
facet normal 0. 0.396079766039 0.91821610688
outer loop
vertex -47. 56.7011370932 78.2593529674
vertex 0. 62.8100008534 75.6242463615
vertex -47. 62.8100008534 75.6242463615
endloop
endfacet
facet normal -0. 0.5 0.866025403784
outer loop
vertex -47. 62.8100008534 75.6242463615
vertex 0. 62.8100008534 75.6242463615
vertex 0. 68.5716414574 72.2977616078
endloop
endfacet
facet normal 0. 0.5 0.866025403784
outer loop
vertex -47. 62.8100008534 75.6242463615
vertex 0. 68.5716414574 72.2977616078
vertex -47. 68.5716414574 72.2977616078
endloop
endfacet
facet normal -0. 0.597158591703 0.802123192755
outer loop
vertex -47. 68.5716414574 72.2977616078
vertex 0. 68.5716414574 72.2977616078
vertex 0. 73.9081426 68.3248837061
endloop
endfacet
facet normal 0. 0.597158591703 0.802123192755
outer loop
vertex -47. 68.5716414574 72.2977616078
vertex 0. 73.9081426 68.3248837061
vertex -47. 73.9081426 68.3248837061
endloop
endfacet
facet normal -0. 0.686241637869 0.727373641573
outer loop
vertex -47. 73.9081426 68.3248837061
vertex 0. 73.9081426 68.3248837061
vertex 0. 78.7473372578 63.7593390147
endloop
endfacet
facet normal 0. 0.686241637869 0.727373641573
outer loop
vertex -47. 73.9081426 68.3248837061
vertex 0. 78.7473372578 63.7593390147
vertex -47. 78.7473372578 63.7593390147
endloop
endfacet
facet normal -0. 0.766044443119 0.642787609687
outer loop
vertex -47. 78.7473372578 63.7593390147
vertex 0. 78.7473372578 63.7593390147
vertex 0. 83.0237836248 58.6628686934
endloop
endfacet
facet normal 0. 0.766044443119 0.642787609687
outer loop
vertex -47. 78.7473372578 63.7593390147
vertex 0. 83.0237836248 58.6628686934
vertex -47. 83.0237836248 58.6628686934
endloop
endfacet
facet normal -0. 0.835487811413 0.549508978071
outer loop
vertex -47. 83.0237836248 58.6628686934
vertex 0. 83.0237836248 58.6628686934
vertex 0. 86.6796500999 53.1043937602
endloop
endfacet
facet normal 0. 0.835487811413 0.549508978071
outer loop
vertex -47. 83.0237836248 58.6628686934
vertex 0. 86.6796500999 53.1043937602
vertex -47. 86.6796500999 53.1043937602
endloop
endfacet
facet normal -0. 0.893632640323 0.4487991802
outer loop
vertex -47. 86.6796500999 53.1043937602
vertex 0. 86.6796500999 53.1043937602
vertex 0. 89.6654973607 47.1590830534
endloop
endfacet
facet normal 0. 0.893632640323 0.4487991802
outer loop
vertex -47. 86.6796500999 53.1043937602
vertex 0. 89.6654973607 47.1590830534
vertex -47. 89.6654973607 47.1590830534
endloop
endfacet
facet normal -0. 0.939692620786 0.342020143326
outer loop
vertex -47. 89.6654973607 47.1590830534
vertex 0. 89.6654973607 47.1590830534
vertex 0. 91.9409469452 40.907336701
endloop
endfacet
facet normal 0. 0.939692620786 0.342020143326
outer loop
vertex -47. 89.6654973607 47.1590830534
vertex 0. 91.9409469452 40.907336701
vertex -47. 91.9409469452 40.907336701
endloop
endfacet
facet normal -0. 0.97304487058 0.230615870742
outer loop
vertex -47. 91.9409469452 40.907336701
vertex 0. 91.9409469452 40.907336701
vertex 0. 93.4752273011 34.4336988477
endloop
endfacet
facet normal 0. 0.97304487058 0.230615870742
outer loop
vertex -47. 91.9409469452 40.907336701
vertex 0. 93.4752273011 34.4336988477
vertex -47. 93.4752273011 34.4336988477
endloop
endfacet
facet normal -0. 0.993238357742 0.116092914125
outer loop
vertex -47. 93.4752273011 34.4336988477
vertex 0. 93.4752273011 34.4336988477
vertex 0. 94.2475899188 27.8257143401
endloop
endfacet
facet normal 0. 0.993238357742 0.116092914125
outer loop
vertex -47. 93.4752273011 34.4336988477
vertex 0. 94.2475899188 27.8257143401
vertex -47. 94.2475899188 27.8257143401
endloop
endfacet
facet normal -0. 1. 0.
outer loop
vertex -47. 94.2475899188 27.8257143401
vertex 0. 94.2475899188 27.8257143401
vertex 0. 94.2475899188 21.1727448327
endloop
endfacet
facet normal 0. 1. 0.
outer loop
vertex -47. 94.2475899188 27.8257143401
vertex 0. 94.2475899188 21.1727448327
vertex -47. 94.2475899188 21.1727448327
endloop
endfacet
facet normal 0. 0.993238357742 -0.116092914125
outer loop
vertex -47. 94.2475899188 21.1727448327
vertex 0. 94.2475899188 21.1727448327
vertex 0. 93.4752273011 14.5647603251
endloop
endfacet
facet normal 0. 0.993238357742 -0.116092914125
outer loop
vertex -47. 94.2475899188 21.1727448327
vertex 0. 93.4752273011 14.5647603251
vertex -47. 93.4752273011 14.5647603251
endloop
endfacet
facet normal 0. 0.97304487058 -0.230615870742
outer loop
vertex -47. 93.4752273011 14.5647603251
vertex 0. 93.4752273011 14.5647603251
vertex 0. 91.9409469452 8.09112247186
endloop
endfacet
facet normal 0. 0.97304487058 -0.230615870742
outer loop
vertex -47. 93.4752273011 14.5647603251
vertex 0. 91.9409469452 8.09112247186
vertex -47. 91.9409469452 8.09112247186
endloop
endfacet
facet normal 0. 0.939692620786 -0.342020143326
outer loop
vertex -47. 91.9409469452 8.09112247186
vertex 0. 91.9409469452 8.09112247186
vertex 0. 89.6654973607 1.83937611947
endloop
endfacet
facet normal 0. 0.939692620786 -0.342020143326
outer loop
vertex -47. 91.9409469452 8.09112247186
vertex 0. 89.6654973607 1.83937611947
vertex -47. 89.6654973607 1.83937611947
endloop
endfacet
facet normal 0. 0.893632640323 -0.4487991802
outer loop
vertex -47. 89.6654973607 1.83937611947
vertex 0. 89.6654973607 1.83937611947
vertex 0. 86.6796500999 -4.10593458739
endloop
endfacet
facet normal 0. 0.893632640323 -0.4487991802
outer loop
vertex -47. 89.6654973607 1.83937611947
vertex 0. 86.6796500999 -4.10593458739
vertex -47. 86.6796500999 -4.10593458739
endloop
endfacet
facet normal 0. 0.835487811413 -0.549508978071
outer loop
vertex -47. 86.6796500999 -4.10593458739
vertex 0. 86.6796500999 -4.10593458739
vertex 0. 83.0237836248 -9.6644095205
endloop
endfacet
facet normal 0. 0.835487811413 -0.549508978071
outer loop
vertex -47. 86.6796500999 -4.10593458739
vertex 0. 83.0237836248 -9.6644095205
vertex -47. 83.0237836248 -9.6644095205
endloop
endfacet
facet normal 0. 0.766044443119 -0.642787609687
outer loop
vertex -47. 83.0237836248 -9.6644095205
vertex 0. 83.0237836248 -9.6644095205
vertex 0. 78.7473372578 -14.7608798419
endloop
endfacet
facet normal 0. 0.766044443119 -0.642787609687
outer loop
vertex -47. 83.0237836248 -9.6644095205
vertex 0. 78.7473372578 -14.7608798419
vertex -47. 78.7473372578 -14.7608798419
endloop
endfacet
facet normal 0. 0.686241637869 -0.727373641573
outer loop
vertex -47. 78.7473372578 -14.7608798419
vertex 0. 78.7473372578 -14.7608798419
vertex 0. 73.9081426 -19.3264245333
endloop
endfacet
facet normal 0. 0.686241637869 -0.727373641573
outer loop
vertex -47. 78.7473372578 -14.7608798419
vertex 0. 73.9081426 -19.3264245333
vertex -47. 73.9081426 -19.3264245333
endloop
endfacet
facet normal 0. 0.597158591703 -0.802123192755
outer loop
vertex -47. 73.9081426 -19.3264245333
vertex 0. 73.9081426 -19.3264245333
vertex 0. 68.5716414574 -23.299302435
endloop
endfacet
facet normal 0. 0.597158591703 -0.802123192755
outer loop
vertex -47. 73.9081426 -19.3264245333
vertex 0. 68.5716414574 -23.299302435
vertex -47. 68.5716414574 -23.299302435
endloop
endfacet
facet normal 0. 0.5 -0.866025403784
outer loop
vertex -47. 68.5716414574 -23.299302435
vertex 0. 68.5716414574 -23.299302435
vertex 0. 62.8100008534 -26.6257871886
endloop
endfacet
facet normal 0. 0.5 -0.866025403784
outer loop
vertex -47. 68.5716414574 -23.299302435
vertex 0. 62.8100008534 -26.6257871886
vertex -47. 62.8100008534 -26.6257871886
endloop
endfacet
facet normal 0. 0.396079766039 -0.91821610688
outer loop
vertex -47. 62.8100008534 -26.6257871886
vertex 0. 62.8100008534 -26.6257871886
vertex 0. 56.7011370932 -29.2608937946
endloop
endfacet
facet normal 0. 0.396079766039 -0.91821610688
outer loop
vertex -47. 62.8100008534 -26.6257871886
vertex 0. 56.7011370932 -29.2608937946
vertex -47. 56.7011370932 -29.2608937946
endloop
endfacet
facet normal 0. 0.286803232711 -0.957989512315
outer loop
vertex -47. 56.7011370932 -29.2608937946
vertex 0. 56.7011370932 -29.2608937946
vertex 0. 50.3276620794 -31.1689869564
endloop
endfacet
facet normal 0. 0.286803232711 -0.957989512315
outer loop
vertex -47. 56.7011370932 -29.2608937946
vertex 0. 50.3276620794 -31.1689869564
vertex -47. 50.3276620794 -31.1689869564
endloop
endfacet
facet normal 0. 0.173648177667 -0.984807753012
outer loop
vertex -47. 50.3276620794 -31.1689869564
vertex 0. 50.3276620794 -31.1689869564
vertex 0. 43.7757661279 -32.3242629875
endloop
endfacet
facet normal 0. 0.173648177667 -0.984807753012
outer loop
vertex -47. 50.3276620794 -31.1689869564
vertex 0. 43.7757661279 -32.3242629875
vertex -47. 43.7757661279 -32.3242629875
endloop
endfacet
facet normal 0. 5.81448289105e-002 -0.998308158271
outer loop
vertex -47. 43.7757661279 -32.3242629875
vertex 0. 43.7757661279 -32.3242629875
vertex 0. 37.134052392 -32.7110987612
endloop
endfacet
facet normal 0. 5.81448289105e-002 -0.998308158271
outer loop
vertex -47. 43.7757661279 -32.3242629875
vertex 0. 37.134052392 -32.7110987612
vertex -47. 37.134052392 -32.7110987612
endloop
endfacet
facet normal 0. -5.81448289105e-002 -0.998308158271
outer loop
vertex -47. 37.134052392 -32.7110987612
vertex 0. 37.134052392 -32.7110987612
vertex 0. 30.4923386561 -32.3242629875
endloop
endfacet
facet normal -0. -5.81448289105e-002 -0.998308158271
outer loop
vertex -47. 37.134052392 -32.7110987612
vertex 0. 30.4923386561 -32.3242629875
vertex -47. 30.4923386561 -32.3242629875
endloop
endfacet
facet normal 0. -0.173648177667 -0.984807753012
outer loop
vertex -47. 30.4923386561 -32.3242629875
vertex 0. 30.4923386561 -32.3242629875
vertex 0. 23.9404427047 -31.1689869564
endloop
endfacet
facet normal -0. -0.173648177667 -0.984807753012
outer loop
vertex -47. 30.4923386561 -32.3242629875
vertex 0. 23.9404427047 -31.1689869564
vertex -47. 23.9404427047 -31.1689869564
endloop
endfacet
facet normal 0. -0.286803232711 -0.957989512315
outer loop
vertex -47. 23.9404427047 -31.1689869564
vertex 0. 23.9404427047 -31.1689869564
vertex 0. 17.5669676908 -29.2608937946
endloop
endfacet
facet normal -0. -0.286803232711 -0.957989512315
outer loop
vertex -47. 23.9404427047 -31.1689869564
vertex 0. 17.5669676908 -29.2608937946
vertex -47. 17.5669676908 -29.2608937946
endloop
endfacet
facet normal 0. -0.396079766039 -0.91821610688
outer loop
vertex -47. 17.5669676908 -29.2608937946
vertex 0. 17.5669676908 -29.2608937946
vertex 0. 11.4581039306 -26.6257871886
endloop
endfacet
facet normal -0. -0.396079766039 -0.91821610688
outer loop
vertex -47. 17.5669676908 -29.2608937946
vertex 0. 11.4581039306 -26.6257871886
vertex -47. 11.4581039306 -26.6257871886
endloop
endfacet
facet normal 0. -0.5 -0.866025403784
outer loop
vertex -47. 11.4581039306 -26.6257871886
vertex 0. 11.4581039306 -26.6257871886
vertex 0. 5.6964633266 -23.299302435
endloop
endfacet
facet normal -0. -0.5 -0.866025403784
outer loop
vertex -47. 11.4581039306 -26.6257871886
vertex 0. 5.6964633266 -23.299302435
vertex -47. 5.6964633266 -23.299302435
endloop
endfacet
facet normal 0. -0.597158591703 -0.802123192755
outer loop
vertex -47. 5.6964633266 -23.299302435
vertex 0. 5.6964633266 -23.299302435
vertex 0. 0.359962184046 -19.3264245333
endloop
endfacet
facet normal -0. -0.597158591703 -0.802123192755
outer loop
vertex -47. 5.6964633266 -23.299302435
vertex 0. 0.359962184046 -19.3264245333
vertex -47. 0.359962184046 -19.3264245333
endloop
endfacet
facet normal 0. -0.686241637869 -0.727373641573
outer loop
vertex -47. 0.359962184046 -19.3264245333
vertex 0. 0.359962184046 -19.3264245333
vertex 0. -4.4792324738 -14.7608798419
endloop
endfacet
facet normal -0. -0.686241637869 -0.727373641573
outer loop
vertex -47. 0.359962184046 -19.3264245333
vertex 0. -4.4792324738 -14.7608798419
vertex -47. -4.4792324738 -14.7608798419
endloop
endfacet
facet normal 0. -0.766044443119 -0.642787609687
outer loop
vertex -47. -4.4792324738 -14.7608798419
vertex 0. -4.4792324738 -14.7608798419
vertex 0. -8.75567884076 -9.6644095205
endloop
endfacet
facet normal -0. -0.766044443119 -0.642787609687
outer loop
vertex -47. -4.4792324738 -14.7608798419
vertex 0. -8.75567884076 -9.6644095205
vertex -47. -8.75567884076 -9.6644095205
endloop
endfacet
facet normal 0. -0.835487811413 -0.549508978071
outer loop
vertex -47. -8.75567884076 -9.6644095205
vertex 0. -8.75567884076 -9.6644095205
vertex 0. -12.4115453159 -4.10593458739
endloop
endfacet
facet normal -0. -0.835487811413 -0.549508978071
outer loop
vertex -47. -8.75567884076 -9.6644095205
vertex 0. -12.4115453159 -4.10593458739
vertex -47. -12.4115453159 -4.10593458739
endloop
endfacet
facet normal 0. -0.893632640323 -0.4487991802
outer loop
vertex -47. -12.4115453159 -4.10593458739
vertex 0. -12.4115453159 -4.10593458739
vertex 0. -15.3973925767 1.83937611947
endloop
endfacet
facet normal -0. -0.893632640323 -0.4487991802
outer loop
vertex -47. -12.4115453159 -4.10593458739
vertex 0. -15.3973925767 1.83937611947
vertex -47. -15.3973925767 1.83937611947
endloop
endfacet
facet normal 0. -0.939692620786 -0.342020143326
outer loop
vertex -47. -15.3973925767 1.83937611947
vertex 0. -15.3973925767 1.83937611947
vertex 0. -17.6728421612 8.09112247186
endloop
endfacet
facet normal -0. -0.939692620786 -0.342020143326
outer loop
vertex -47. -15.3973925767 1.83937611947
vertex 0. -17.6728421612 8.09112247186
vertex -47. -17.6728421612 8.09112247186
endloop
endfacet
facet normal 0. -0.97304487058 -0.230615870742
outer loop
vertex -47. -17.6728421612 8.09112247186
vertex 0. -17.6728421612 8.09112247186
vertex 0. -19.2071225171 14.5647603251
endloop
endfacet
facet normal -0. -0.97304487058 -0.230615870742
outer loop
vertex -47. -17.6728421612 8.09112247186
vertex 0. -19.2071225171 14.5647603251
vertex -47. -19.2071225171 14.5647603251
endloop
endfacet
facet normal 0. -0.993238357742 -0.116092914125
outer loop
vertex -47. -19.2071225171 14.5647603251
vertex 0. -19.2071225171 14.5647603251
vertex 0. -19.9794851348 21.1727448327
endloop
endfacet
facet normal -0. -0.993238357742 -0.116092914125
outer loop
vertex -47. -19.2071225171 14.5647603251
vertex 0. -19.9794851348 21.1727448327
vertex -47. -19.9794851348 21.1727448327
endloop
endfacet
facet normal 0. -0.999576950082 -2.90847187431e-002
outer loop
vertex -47. -19.9794851348 21.1727448327
vertex 0. -19.9794851348 21.1727448327
vertex -47. -20.0762759556 24.4992295864
endloop
endfacet
endsolid
